<svg version="1.1" id="Layer_1" xmlns="http://www.w3.org/2000/svg" xmlns:xlink="http://www.w3.org/1999/xlink" x="0px" y="0px"
	 width="100%" viewBox="0 0 284 242" enable-background="new 0 0 284 242" xml:space="preserve">
<path fill="#FDFDFD" opacity="1.000000" stroke="none" 
	d="
M195.000000,0.999999 
	C198.362427,1.000000 201.724869,1.000000 205.252686,1.317088 
	C210.404083,4.692448 211.452728,9.838101 209.616196,14.354840 
	C206.453384,22.133373 201.945267,29.364895 197.668335,36.985542 
	C195.967163,39.189034 194.599426,41.232967 192.867157,43.821640 
	C196.765442,43.821640 199.419418,43.934368 202.061005,43.801300 
	C211.387741,43.331463 218.724777,47.176563 225.063248,53.755234 
	C230.441132,59.336922 236.142853,64.608177 241.740021,69.976425 
	C244.863037,72.971710 248.234085,75.724434 251.205338,78.859459 
	C281.082489,110.383514 280.999847,153.046295 251.167099,184.594513 
	C237.379562,199.174850 220.632355,209.024017 202.010239,215.984604 
	C194.852280,218.660110 193.220154,221.059433 192.938873,229.432983 
	C189.925766,234.298157 187.821472,239.531723 182.113144,241.528214 
	C181.926666,241.593445 182.031143,242.490631 182.000000,243.000000 
	C179.299728,243.000000 176.599472,243.000000 173.737198,242.710831 
	C170.473297,239.903702 167.371384,237.385742 164.383270,234.566055 
	C164.053528,229.892105 161.352158,228.158829 157.460052,229.377243 
	C150.098282,231.681824 143.210632,231.905380 136.726608,227.012299 
	C135.913132,226.398422 134.243698,225.917923 133.530670,226.334305 
	C128.913757,229.030273 124.452095,231.992126 119.557205,234.934174 
	C105.183548,240.973633 90.722183,242.117203 84.072113,225.694946 
	C84.648903,218.054214 80.843376,214.564026 74.354973,211.825653 
	C52.710369,202.690750 34.801453,188.818665 22.423187,168.408615 
	C21.512215,166.906540 19.530256,165.722717 17.792944,165.115311 
	C12.622851,163.307709 12.053850,161.915222 13.609523,156.628555 
	C14.400324,153.941147 14.268993,150.894608 14.114963,148.034073 
	C13.714860,140.603760 12.145656,133.116623 12.700085,125.777336 
	C14.311348,104.448112 24.989655,87.575188 40.263264,73.198990 
	C42.473740,71.118393 44.263954,68.434341 45.715523,65.742104 
	C47.764385,61.942039 50.555466,59.691666 54.849747,58.866550 
	C58.389217,58.186466 62.071121,57.380650 65.232391,55.745846 
	C80.847549,47.670708 97.164223,42.027092 114.670090,39.781532 
	C121.428009,38.914665 127.595016,36.532471 130.392181,29.011581 
	C134.213196,25.324377 137.536270,21.561710 141.291443,18.295900 
	C147.841293,12.599607 154.420059,6.861417 163.071121,4.375156 
	C169.406235,2.554492 172.978104,4.386837 173.966614,10.268180 
	C174.486542,13.361631 174.791458,16.491219 175.078033,18.710550 
	C181.302917,13.551127 187.697205,8.278582 194.038773,2.943355 
	C194.545502,2.517036 194.688141,1.657961 195.000000,0.999999 
M88.044128,215.633179 
	C88.187027,216.474121 88.329933,217.315063 88.492706,218.949844 
	C89.998138,221.959549 91.503578,224.969254 93.161629,228.490952 
	C93.465256,228.651505 93.768890,228.812057 94.448784,229.600128 
	C99.397049,233.083847 104.761246,233.226349 110.099373,230.987366 
	C117.278114,227.976364 124.277817,224.541000 131.409317,221.413040 
	C133.163544,220.643631 135.130615,220.359528 137.257202,220.135620 
	C137.257202,220.135620 137.639709,220.148987 137.973801,220.777466 
	C142.861572,225.500793 148.119034,227.766937 154.834091,224.210419 
	C158.424805,222.308670 161.899963,222.689636 164.939285,226.079727 
	C167.587250,229.033295 170.883865,231.395203 173.671371,234.236816 
	C176.048004,236.659576 177.864746,236.573166 180.342316,234.239014 
	C189.898438,225.236160 193.371902,208.189362 187.872269,196.203308 
	C185.682266,191.430359 182.341354,190.462799 177.852051,193.513474 
	C175.129654,195.363464 172.667847,197.594025 169.969330,199.482651 
	C163.749527,203.835815 157.785080,209.018768 149.221024,206.845978 
	C149.221024,206.845978 149.229950,206.809357 148.878677,206.268616 
	C147.252121,205.307343 145.625565,204.346054 143.344482,203.051971 
	C142.226913,203.357971 141.109329,203.663971 139.292694,203.910049 
	C138.232437,203.181580 137.103729,202.534698 136.122711,201.711746 
	C128.138687,195.014114 120.321922,188.107788 112.166054,181.627716 
	C107.122948,177.620804 102.737541,178.406799 98.916649,183.583511 
	C93.559296,190.841919 89.379196,198.668961 88.243858,208.503296 
	C88.217026,209.669907 88.190186,210.836533 88.013649,212.744507 
	C88.066681,213.495148 88.119713,214.245789 88.044128,215.633179 
M233.983612,104.650795 
	C234.350189,105.435410 234.716766,106.220024 235.015472,107.812439 
	C236.188705,117.407822 237.361923,127.003212 238.550079,136.720764 
	C241.936279,129.219772 240.950485,121.006424 241.247971,112.107437 
	C239.081680,103.923622 237.026627,95.708115 234.707581,87.567810 
	C233.308456,82.656570 231.005234,77.965324 229.967468,72.995789 
	C226.948563,58.539242 212.226395,45.498199 198.184921,49.417053 
	C197.253708,49.676945 196.193741,49.597748 195.206863,49.516300 
	C188.325653,48.948364 183.499817,45.425152 189.771164,38.369156 
	C190.865875,37.137493 191.773682,35.704506 192.583984,34.261295 
	C196.309952,27.625069 200.156021,21.043381 203.510971,14.221770 
	C204.252808,12.713422 203.852692,9.268002 202.773651,8.565825 
	C201.202652,7.543504 198.497894,7.925752 196.358383,8.249681 
	C195.197220,8.425489 194.120209,9.628140 193.151260,10.525335 
	C187.205322,16.030924 181.331284,21.614527 175.356369,27.088154 
	C174.224243,28.125294 172.746857,28.785576 171.428787,29.619745 
	C170.934799,28.006222 170.164154,26.418354 170.011597,24.773169 
	C169.782028,22.297693 169.867249,19.774405 170.030273,17.285301 
	C170.309296,13.024999 168.044678,11.014493 164.316071,12.233498 
	C159.200867,13.905826 153.547241,15.545453 149.636673,18.940870 
	C142.264954,25.341496 136.008240,33.019665 129.208405,40.090214 
	C127.516663,41.849312 125.771675,44.103989 123.623657,44.787624 
	C110.925194,48.829067 99.928856,55.906971 89.098869,63.344898 
	C84.519218,66.490150 80.268890,71.532837 74.280281,65.578384 
	C73.765488,65.066536 72.729156,64.895164 71.930458,64.883499 
	C67.565819,64.819756 63.173714,65.158943 58.840149,64.787216 
	C52.019833,64.202164 48.867496,67.613487 51.891758,73.731407 
	C53.874096,77.741585 57.319427,81.154808 60.554417,84.390602 
	C65.692780,89.530251 65.520042,91.585823 58.991814,95.049416 
	C55.334705,96.989731 51.509144,98.711250 48.142368,101.076393 
	C43.374340,104.425911 43.467316,107.730125 47.441818,111.800072 
	C51.128815,115.575615 53.143341,111.151894 55.862648,110.191391 
	C56.733494,114.598221 55.092709,117.632034 52.178772,117.447983 
	C48.746296,117.231171 45.306835,117.086380 41.868210,117.012863 
	C32.212360,116.806404 30.220778,121.976433 31.734200,130.208145 
	C32.854912,136.303833 33.325150,141.557404 27.242823,145.270859 
	C26.287037,145.854401 25.551188,146.884232 24.874329,147.823517 
	C22.130590,151.631012 18.681902,155.218964 20.131596,160.467941 
	C31.545795,163.843536 34.231339,155.320541 37.449409,147.595215 
	C38.518925,148.337097 39.117588,148.629608 39.559223,149.077087 
	C46.334888,155.942459 53.834087,161.552765 63.224758,164.579605 
	C65.631470,165.355331 67.420769,168.187988 69.378380,170.188522 
	C74.819046,175.748444 80.114975,181.454361 85.694016,186.869843 
	C86.526978,187.678375 88.577103,187.233002 91.400093,187.488724 
	C86.173752,180.898987 81.361725,176.156586 78.239090,170.484146 
	C75.641106,165.764816 72.427223,162.952957 67.692703,160.822235 
	C59.207932,157.003754 51.738510,151.568756 47.449951,143.049911 
	C42.437878,133.093857 45.671474,126.486420 57.088741,126.758507 
	C62.545357,126.888542 67.747215,128.815109 73.889648,125.617462 
	C82.864136,120.945480 93.218170,118.818520 103.103271,116.028740 
	C114.142067,112.913376 114.201393,113.117867 120.275597,122.956764 
	C127.440346,134.562119 137.824692,140.658997 151.468109,139.829269 
	C164.922943,139.011002 173.242676,130.463623 178.679810,119.018692 
	C181.936005,112.164543 182.896149,104.730400 181.208359,97.088890 
	C180.891220,95.653076 181.239807,93.661095 182.089890,92.537720 
	C182.561905,91.913925 185.120056,92.012802 186.033417,92.709549 
	C196.727081,100.867065 207.531769,108.911728 217.775665,117.611946 
	C222.686737,121.782959 222.521225,125.849892 219.259277,131.479401 
	C214.955139,138.907532 208.987305,144.528824 201.019730,147.823471 
	C195.666229,150.037201 191.815292,153.709549 189.525040,158.963928 
	C189.132950,159.863495 189.235184,161.247314 189.670853,162.130264 
	C189.903275,162.601334 191.402054,162.767822 192.218689,162.583038 
	C208.039780,159.003082 220.210663,150.325516 228.700211,136.451691 
	C231.759811,131.451675 232.185745,126.021622 230.238815,120.884750 
	C228.308350,115.791321 225.116379,111.176018 222.415482,106.237274 
	C224.583969,103.277519 227.018463,99.954704 229.722488,96.264000 
	C230.941162,98.352859 232.006210,100.178406 233.040298,102.581818 
	C233.375900,103.048004 233.711502,103.514198 233.983612,104.650795 
M109.883072,135.469543 
	C113.320244,134.396194 112.731415,137.088242 113.031921,138.878479 
	C115.083138,151.098236 117.665771,163.132553 123.848038,174.104050 
	C131.280670,187.294540 141.640579,196.683960 156.624390,200.562622 
	C160.038315,201.446350 162.330994,200.615601 163.920929,197.788849 
	C166.535583,193.140213 168.606049,188.147812 171.568314,183.746124 
	C173.410812,181.008301 176.226959,178.701004 179.057419,176.916138 
	C181.871613,175.141541 185.478302,174.632507 188.316940,172.885300 
	C191.097870,171.173630 193.348953,168.601074 195.832581,166.406372 
	C190.153351,166.033936 185.328720,166.212509 180.632172,167.082535 
	C173.395935,168.423019 166.428406,167.339539 159.377075,165.900803 
	C141.762375,162.306717 128.014160,152.767365 117.435997,138.550262 
	C116.210068,136.902634 116.860512,133.866943 116.616470,131.477295 
	C116.493370,130.271927 116.741211,128.606796 116.059021,127.982353 
	C115.109138,127.112877 113.370499,126.512535 112.099335,126.696144 
	C108.055466,127.280266 104.923843,132.776077 105.842049,137.726288 
	C107.032158,137.081512 108.108162,136.498566 109.883072,135.469543 
M55.542889,133.973618 
	C55.180317,136.573135 54.239281,139.295624 54.752254,141.709061 
	C54.945671,142.619019 58.504589,142.813644 61.262833,143.523026 
	C60.050098,137.508987 62.491035,135.440872 67.419304,135.542755 
	C67.295845,135.005249 67.172379,134.467743 67.048920,133.930237 
	C63.459507,133.805954 59.870090,133.681671 55.542889,133.973618 
M89.371170,147.864700 
	C90.376305,146.114822 91.707199,144.445877 92.175186,142.562531 
	C92.304672,142.041473 89.910934,140.305099 88.594353,140.206955 
	C87.615318,140.133987 85.477737,142.130859 85.639320,142.640869 
	C86.231529,144.510025 87.569145,146.143021 89.371170,147.864700 
M94.774796,150.444901 
	C96.306122,151.248505 97.837448,152.052109 99.368767,152.855713 
	C99.953354,151.641418 101.005791,150.413284 100.970406,149.217331 
	C100.943428,148.305939 99.125557,146.551559 98.813248,146.696777 
	C97.308510,147.396362 96.044136,148.612930 94.774796,150.444901 
z"/>
<path fill="#000000" opacity="1.000000" stroke="none" display="none"
	d="
M194.531342,0.999999 
	C194.688141,1.657961 194.545502,2.517036 194.038773,2.943355 
	C187.697205,8.278582 181.302917,13.551127 175.078033,18.710550 
	C174.791458,16.491219 174.486542,13.361631 173.966614,10.268180 
	C172.978104,4.386837 169.406235,2.554492 163.071121,4.375156 
	C154.420059,6.861417 147.841293,12.599607 141.291443,18.295900 
	C137.536270,21.561710 134.213196,25.324377 129.964783,28.962032 
	C122.206490,30.041403 114.990959,30.321392 108.190170,32.146637 
	C93.391747,36.118340 78.336060,39.753563 64.259102,45.621845 
	C49.248741,51.879227 36.351353,61.952183 25.195143,74.114594 
	C14.038003,86.278023 5.985877,99.891251 2.920331,116.259430 
	C2.793659,116.935783 1.662944,117.424088 1.000000,118.000000 
	C1.000000,79.054924 1.000000,40.109840 1.000000,1.000000 
	C65.354134,1.000000 129.708405,1.000000 194.531342,0.999999 
z"/>
<path fill="#000000" opacity="1.000000" stroke="none" display="none"
	d="
M198.001740,36.825981 
	C201.945267,29.364895 206.453384,22.133373 209.616196,14.354840 
	C211.452728,9.838101 210.404083,4.692448 205.709045,1.317088 
	C232.274429,1.000000 258.548859,1.000000 285.000000,1.000000 
	C285.000000,39.687382 285.000000,78.375031 284.630035,117.751495 
	C283.840607,117.608742 283.317627,116.812691 283.018311,115.939941 
	C280.869232,109.674202 279.411499,103.076073 276.519196,97.179459 
	C269.499268,82.867760 260.018829,70.420883 246.383545,61.594868 
	C237.581329,55.897289 228.943634,49.930374 219.965607,44.527145 
	C216.419250,42.392849 212.175980,41.383934 208.200623,40.005032 
	C204.837997,38.838665 201.404099,37.877796 198.001740,36.825981 
z"/>
<path fill="#000000" opacity="1.000000" stroke="none" display="none"
	d="
M164.269470,234.867798 
	C167.371384,237.385742 170.473297,239.903702 173.287598,242.710831 
	C115.760033,243.000000 58.520069,243.000000 1.000000,243.000000 
	C1.000000,210.979645 1.000000,178.958481 1.383297,146.266968 
	C2.109461,145.942734 2.699529,146.250656 2.759722,146.640411 
	C5.718632,165.799179 16.043472,181.014297 29.077007,194.520844 
	C40.427971,206.283722 54.318150,214.570740 69.251030,221.034332 
	C73.986626,223.084106 79.023056,224.438812 83.921822,226.111603 
	C90.722183,242.117203 105.183548,240.973633 119.991669,235.006912 
	C123.148994,235.023834 125.489494,235.035324 127.927917,235.304047 
	C128.343521,235.675552 128.661209,235.789825 129.445007,235.968506 
	C138.948196,235.986908 147.985291,235.940903 157.294800,235.910309 
	C157.755447,235.627869 157.943665,235.330017 158.567886,235.017365 
	C160.759079,234.957657 162.514267,234.912720 164.269470,234.867798 
z"/>
<path fill="#000000" opacity="1.000000" stroke="none" display="none"
	d="
M182.468658,243.000000 
	C182.031143,242.490631 181.926666,241.593445 182.113144,241.528214 
	C187.821472,239.531723 189.925766,234.298157 193.340927,229.390121 
	C194.853973,228.892914 195.872253,228.911209 196.784302,228.608902 
	C214.562180,222.716309 231.448837,215.320862 246.372879,203.501526 
	C264.741913,188.953842 278.343079,171.645538 283.121155,148.235413 
	C283.226868,147.717361 284.350952,147.407166 285.000000,147.000000 
	C285.000000,178.929504 285.000000,210.858994 285.000000,243.000000 
	C250.979401,243.000000 216.958359,243.000000 182.468658,243.000000 
z"/>
<path fill="#089DCE" opacity="1.000000" stroke="none" 
	d="
M84.072113,225.694946 
	C79.023056,224.438812 73.986626,223.084106 69.251030,221.034332 
	C54.318150,214.570740 40.427971,206.283722 29.077007,194.520844 
	C16.043472,181.014297 5.718632,165.799179 2.759722,146.640411 
	C2.699529,146.250656 2.109461,145.942734 1.383297,145.798309 
	C1.000000,136.979111 1.000000,127.958214 1.000000,118.468658 
	C1.662944,117.424088 2.793659,116.935783 2.920331,116.259430 
	C5.985877,99.891251 14.038003,86.278023 25.195143,74.114594 
	C36.351353,61.952183 49.248741,51.879227 64.259102,45.621845 
	C78.336060,39.753563 93.391747,36.118340 108.190170,32.146637 
	C114.990959,30.321392 122.206490,30.041403 129.661346,29.110249 
	C127.595016,36.532471 121.428009,38.914665 114.670090,39.781532 
	C97.164223,42.027092 80.847549,47.670708 65.232391,55.745846 
	C62.071121,57.380650 58.389217,58.186466 54.849747,58.866550 
	C50.555466,59.691666 47.764385,61.942039 45.715523,65.742104 
	C44.263954,68.434341 42.473740,71.118393 40.263264,73.198990 
	C24.989655,87.575188 14.311348,104.448112 12.700085,125.777336 
	C12.145656,133.116623 13.714860,140.603760 14.114963,148.034073 
	C14.268993,150.894608 14.400324,153.941147 13.609523,156.628555 
	C12.053850,161.915222 12.622851,163.307709 17.792944,165.115311 
	C19.530256,165.722717 21.512215,166.906540 22.423187,168.408615 
	C34.801453,188.818665 52.710369,202.690750 74.354973,211.825653 
	C80.843376,214.564026 84.648903,218.054214 84.072113,225.694946 
z"/>
<path fill="#089DCE" opacity="1.000000" stroke="none" 
	d="
M285.000000,146.531342 
	C284.350952,147.407166 283.226868,147.717361 283.121155,148.235413 
	C278.343079,171.645538 264.741913,188.953842 246.372879,203.501526 
	C231.448837,215.320862 214.562180,222.716309 196.784302,228.608902 
	C195.872253,228.911209 194.853973,228.892914 193.483093,229.066727 
	C193.220154,221.059433 194.852280,218.660110 202.010239,215.984604 
	C220.632355,209.024017 237.379562,199.174850 251.167099,184.594513 
	C280.999847,153.046295 281.082489,110.383514 251.205338,78.859459 
	C248.234085,75.724434 244.863037,72.971710 241.740021,69.976425 
	C236.142853,64.608177 230.441132,59.336922 225.063248,53.755234 
	C218.724777,47.176563 211.387741,43.331463 202.061005,43.801300 
	C199.419418,43.934368 196.765442,43.821640 192.867157,43.821640 
	C194.599426,41.232967 195.967163,39.189034 197.668335,36.985542 
	C201.404099,37.877796 204.837997,38.838665 208.200623,40.005032 
	C212.175980,41.383934 216.419250,42.392849 219.965607,44.527145 
	C228.943634,49.930374 237.581329,55.897289 246.383545,61.594868 
	C260.018829,70.420883 269.499268,82.867760 276.519196,97.179459 
	C279.411499,103.076073 280.869232,109.674202 283.018311,115.939941 
	C283.317627,116.812691 283.840607,117.608742 284.630035,118.220154 
	C285.000000,127.354225 285.000000,136.708450 285.000000,146.531342 
z"/>
<path fill="#3A3A3A" opacity="1.000000" stroke="none" 
	d="
M233.071259,102.003952 
	C232.006210,100.178406 230.941162,98.352859 229.722488,96.264000 
	C227.018463,99.954704 224.583969,103.277519 222.415482,106.237274 
	C225.116379,111.176018 228.308350,115.791321 230.238815,120.884750 
	C232.185745,126.021622 231.759811,131.451675 228.700211,136.451691 
	C220.210663,150.325516 208.039780,159.003082 192.218689,162.583038 
	C191.402054,162.767822 189.903275,162.601334 189.670853,162.130264 
	C189.235184,161.247314 189.132950,159.863495 189.525040,158.963928 
	C191.815292,153.709549 195.666229,150.037201 201.019730,147.823471 
	C208.987305,144.528824 214.955139,138.907532 219.259277,131.479401 
	C222.521225,125.849892 222.686737,121.782959 217.775665,117.611946 
	C207.531769,108.911728 196.727081,100.867065 186.033417,92.709549 
	C185.120056,92.012802 182.561905,91.913925 182.089890,92.537720 
	C181.239807,93.661095 180.891220,95.653076 181.208359,97.088890 
	C182.896149,104.730400 181.936005,112.164543 178.679810,119.018692 
	C173.242676,130.463623 164.922943,139.011002 151.468109,139.829269 
	C137.824692,140.658997 127.440346,134.562119 120.275597,122.956764 
	C114.201393,113.117867 114.142067,112.913376 103.103271,116.028740 
	C93.218170,118.818520 82.864136,120.945480 73.889648,125.617462 
	C67.747215,128.815109 62.545357,126.888542 57.088741,126.758507 
	C45.671474,126.486420 42.437878,133.093857 47.449951,143.049911 
	C51.738510,151.568756 59.207932,157.003754 67.692703,160.822235 
	C72.427223,162.952957 75.641106,165.764816 78.239090,170.484146 
	C81.361725,176.156586 86.173752,180.898987 91.400093,187.488724 
	C88.577103,187.233002 86.526978,187.678375 85.694016,186.869843 
	C80.114975,181.454361 74.819046,175.748444 69.378380,170.188522 
	C67.420769,168.187988 65.631470,165.355331 63.224758,164.579605 
	C53.834087,161.552765 46.334888,155.942459 39.559223,149.077087 
	C39.117588,148.629608 38.518925,148.337097 37.449409,147.595215 
	C34.231339,155.320541 31.545795,163.843536 20.131596,160.467941 
	C18.681902,155.218964 22.130590,151.631012 24.874329,147.823517 
	C25.551188,146.884232 26.287037,145.854401 27.242823,145.270859 
	C33.325150,141.557404 32.854912,136.303833 31.734200,130.208145 
	C30.220778,121.976433 32.212360,116.806404 41.868210,117.012863 
	C45.306835,117.086380 48.746296,117.231171 52.178772,117.447983 
	C55.092709,117.632034 56.733494,114.598221 55.862648,110.191391 
	C53.143341,111.151894 51.128815,115.575615 47.441818,111.800072 
	C43.467316,107.730125 43.374340,104.425911 48.142368,101.076393 
	C51.509144,98.711250 55.334705,96.989731 58.991814,95.049416 
	C65.520042,91.585823 65.692780,89.530251 60.554417,84.390602 
	C57.319427,81.154808 53.874096,77.741585 51.891758,73.731407 
	C48.867496,67.613487 52.019833,64.202164 58.840149,64.787216 
	C63.173714,65.158943 67.565819,64.819756 71.930458,64.883499 
	C72.729156,64.895164 73.765488,65.066536 74.280281,65.578384 
	C80.268890,71.532837 84.519218,66.490150 89.098869,63.344898 
	C99.928856,55.906971 110.925194,48.829067 123.623657,44.787624 
	C125.771675,44.103989 127.516663,41.849312 129.208405,40.090214 
	C136.008240,33.019665 142.264954,25.341496 149.636673,18.940870 
	C153.547241,15.545453 159.200867,13.905826 164.316071,12.233498 
	C168.044678,11.014493 170.309296,13.024999 170.030273,17.285301 
	C169.867249,19.774405 169.782028,22.297693 170.011597,24.773169 
	C170.164154,26.418354 170.934799,28.006222 171.428787,29.619743 
	C172.746857,28.785576 174.224243,28.125294 175.356369,27.088154 
	C181.331284,21.614527 187.205322,16.030924 193.151260,10.525335 
	C194.120209,9.628140 195.197220,8.425489 196.358383,8.249681 
	C198.497894,7.925752 201.202652,7.543504 202.773651,8.565825 
	C203.852692,9.268002 204.252808,12.713422 203.510971,14.221770 
	C200.156021,21.043381 196.309952,27.625069 192.583984,34.261295 
	C191.773682,35.704506 190.865875,37.137493 189.771164,38.369156 
	C183.499817,45.425152 188.325653,48.948364 195.206863,49.516300 
	C196.193741,49.597748 197.253708,49.676945 198.184921,49.417053 
	C212.226395,45.498199 226.948563,58.539242 229.967468,72.995789 
	C231.005234,77.965324 233.308456,82.656570 234.707581,87.567810 
	C237.026627,95.708115 239.081680,103.923622 240.892273,112.707520 
	C239.166397,114.970238 238.509521,115.129578 237.909073,112.628571 
	C237.432205,110.642281 236.058731,108.871239 235.083344,107.004631 
	C234.716766,106.220024 234.350189,105.435410 234.237320,104.146744 
	C234.017776,103.096443 233.544510,102.550194 233.071259,102.003952 
M211.008041,62.988846 
	C211.008041,62.988846 211.081665,62.948723 210.845810,62.226761 
	C197.503479,54.519672 187.936005,60.523739 183.533371,70.056328 
	C181.883377,73.628922 179.654861,77.916199 185.652634,80.239830 
	C186.313278,80.495773 187.041946,81.429993 187.144119,82.135757 
	C187.829285,86.868553 191.722275,88.206078 195.194031,90.040955 
	C199.728836,92.437668 204.240189,94.878738 208.923370,97.164497 
	C208.923370,97.164497 208.728851,97.247421 209.150345,97.853569 
	C211.449142,99.863289 213.501328,100.056725 215.712967,96.796562 
	C216.490143,95.571320 217.267319,94.346077 218.724091,92.765785 
	C222.880157,84.974686 221.838974,77.219162 217.853317,69.889397 
	C216.360153,67.143433 213.361313,65.216202 211.008041,62.988846 
M72.163513,117.431618 
	C82.353088,111.860085 92.536789,106.277756 102.737213,100.726151 
	C104.766922,99.621475 106.763298,98.143837 108.948090,97.710373 
	C112.062744,97.092430 113.388565,95.668640 113.850723,92.552765 
	C115.131279,83.919273 119.243752,76.527962 125.446999,70.587723 
	C130.659912,65.595810 137.007797,63.936646 144.589294,63.374084 
	C153.393036,62.720833 160.149277,65.067291 166.366272,70.342697 
	C169.481079,72.985764 171.999741,76.331390 174.924057,79.506996 
	C177.124283,72.139610 179.039200,65.727600 181.006409,59.140488 
	C180.044189,58.759048 178.526413,58.157368 177.365158,57.697025 
	C178.388184,54.163742 179.598450,50.762863 180.260666,47.258419 
	C180.481369,46.090427 179.624786,44.032997 178.660965,43.528969 
	C177.779617,43.068073 175.904099,43.882164 174.797226,44.626163 
	C173.158234,45.727833 171.894791,47.371376 170.323288,48.593708 
	C166.727921,51.390209 164.571823,50.493397 164.111694,45.910976 
	C163.863678,43.441006 164.382828,40.880672 164.024292,38.439167 
	C163.713593,36.323536 163.203537,33.337383 161.772568,32.534584 
	C160.288177,31.701818 157.120331,32.369900 155.502380,33.523102 
	C146.314606,40.071724 137.389923,46.988327 128.337479,53.728340 
	C120.900940,59.265221 113.403244,64.719879 105.949951,70.234344 
	C103.856033,71.783569 101.823189,73.415344 99.397018,75.291794 
	C102.060425,77.640839 104.280884,79.599213 106.506889,81.562485 
	C99.193008,80.692932 92.168373,79.470268 85.102669,79.147804 
	C80.008591,78.915321 78.632751,82.100601 81.504784,86.271202 
	C82.537979,87.771538 84.096977,88.947960 84.950111,90.524353 
	C85.986214,92.438835 87.421036,94.844170 86.977280,96.607887 
	C86.674507,97.811287 83.419800,98.215065 81.540535,99.095093 
	C79.741615,99.937500 77.113136,100.500237 76.421043,101.940948 
	C74.140625,106.688019 72.572556,111.777298 70.316910,117.030380 
	C70.706566,117.243713 71.096222,117.457047 72.163513,117.431618 
M157.593430,128.352890 
	C177.848297,120.590790 181.327667,92.319710 163.801727,77.884903 
	C157.673721,72.837738 150.857559,70.469383 142.952026,72.780861 
	C128.567474,76.986740 121.276566,90.777756 125.177689,107.007523 
	C128.441162,120.584488 140.919937,132.898254 157.593430,128.352890 
z"/>
<path fill="#3A3A3B" opacity="1.000000" stroke="none" 
	d="
M109.533623,135.692566 
	C108.108162,136.498566 107.032158,137.081512 105.842049,137.726288 
	C104.923843,132.776077 108.055466,127.280266 112.099335,126.696144 
	C113.370499,126.512535 115.109138,127.112877 116.059021,127.982353 
	C116.741211,128.606796 116.493370,130.271927 116.616470,131.477295 
	C116.860512,133.866943 116.210068,136.902634 117.435997,138.550262 
	C128.014160,152.767365 141.762375,162.306717 159.377075,165.900803 
	C166.428406,167.339539 173.395935,168.423019 180.632172,167.082535 
	C185.328720,166.212509 190.153351,166.033936 195.832581,166.406372 
	C193.348953,168.601074 191.097870,171.173630 188.316940,172.885300 
	C185.478302,174.632507 181.871613,175.141541 179.057419,176.916138 
	C176.226959,178.701004 173.410812,181.008301 171.568314,183.746124 
	C168.606049,188.147812 166.535583,193.140213 163.920929,197.788849 
	C162.330994,200.615601 160.038315,201.446350 156.624390,200.562622 
	C141.640579,196.683960 131.280670,187.294540 123.848038,174.104050 
	C117.665771,163.132553 115.083138,151.098236 113.031921,138.878479 
	C112.731415,137.088242 113.320244,134.396194 109.533623,135.692566 
M152.873962,177.208801 
	C152.166061,176.835907 151.458176,176.463028 150.143951,175.768051 
	C145.745773,170.266953 139.797836,172.261658 134.173767,172.205139 
	C135.458160,180.028625 146.150772,190.440903 153.475830,190.886154 
	C155.214966,190.991867 157.860611,190.482971 158.643738,189.299896 
	C160.870834,185.935455 157.111740,178.849609 152.873962,177.208801 
M160.508759,177.165176 
	C161.685043,180.950806 162.861328,184.736420 163.964645,188.287247 
	C167.598572,182.973663 171.227341,177.667648 174.981064,172.178894 
	C154.614243,170.812851 135.705292,164.622314 120.616104,148.413055 
	C119.873192,155.143295 125.009537,168.980652 129.279282,172.835007 
	C130.846130,167.793060 134.510544,166.993179 139.294098,166.853500 
	C148.047852,166.597885 152.979080,173.678848 160.508759,177.165176 
M192.517441,167.413483 
	C192.517441,167.413483 192.582092,167.522461 192.517441,167.413483 
z"/>
<path fill="#FD0808" opacity="1.000000" stroke="none" 
	d="
M136.999847,219.852325 
	C135.130615,220.359528 133.163544,220.643631 131.409317,221.413040 
	C124.277817,224.541000 117.278114,227.976364 110.099373,230.987366 
	C104.761246,233.226349 99.397049,233.083847 94.578583,229.145966 
	C96.270920,228.579712 97.833466,228.467606 99.370911,228.357300 
	C99.908707,227.265167 100.468613,226.128098 101.392776,225.074615 
	C104.456192,225.642685 107.592331,227.255341 109.776192,226.409454 
	C117.738831,223.325256 125.492210,219.631805 133.097488,215.726013 
	C136.402344,214.028763 136.976288,210.726181 134.488602,207.713501 
	C127.366035,199.087799 119.020844,191.894928 108.955109,186.418396 
	C107.882599,184.144989 107.321114,180.670639 104.242203,182.638290 
	C100.108253,185.280212 97.743904,189.522308 96.869682,194.438171 
	C98.781944,192.578018 99.880791,190.147202 101.572311,188.242813 
	C102.839409,186.816269 104.289185,183.597107 106.701141,187.048279 
	C100.235153,193.196289 97.173019,200.683167 95.477348,208.929504 
	C94.741684,207.173080 93.918602,205.452850 94.039909,203.801987 
	C94.191406,201.740265 95.120239,199.735657 95.713463,197.706390 
	C95.319359,197.577881 94.925247,197.449387 94.531143,197.320877 
	C93.962288,198.574890 93.489204,199.884155 92.804207,201.071136 
	C91.468788,203.385147 90.014740,205.630722 88.609818,207.904633 
	C89.379196,198.668961 93.559296,190.841919 98.916649,183.583511 
	C102.737541,178.406799 107.122948,177.620804 112.166054,181.627716 
	C120.321922,188.107788 128.138687,195.014114 136.122711,201.711746 
	C137.103729,202.534698 138.232437,203.181580 139.600098,204.323364 
	C138.938278,209.775223 137.969055,214.813766 136.999847,219.852325 
z"/>
<path fill="#FD0808" opacity="1.000000" stroke="none" 
	d="
M149.232346,206.797440 
	C157.785080,209.018768 163.749527,203.835815 169.969330,199.482651 
	C172.667847,197.594025 175.129654,195.363464 177.852051,193.513474 
	C182.341354,190.462799 185.682266,191.430359 187.872269,196.203308 
	C193.371902,208.189362 189.898438,225.236160 180.342316,234.239014 
	C177.864746,236.573166 176.048004,236.659576 173.671371,234.236816 
	C170.883865,231.395203 167.587250,229.033295 164.939285,226.079727 
	C161.899963,222.689636 158.424805,222.308670 154.834091,224.210419 
	C148.119034,227.766937 142.861572,225.500793 138.207886,220.426392 
	C139.093124,220.146301 139.902115,219.992691 140.371414,220.322464 
	C145.900970,224.208191 151.525757,224.521866 157.417053,221.134674 
	C158.329865,220.609848 159.577988,220.668228 159.926407,220.600876 
	C160.702713,218.033401 161.312241,216.017502 161.968506,214.379105 
	C162.844193,216.220703 163.673141,217.684799 164.429504,219.020691 
	C165.844254,215.569427 166.977341,212.805252 168.110428,210.041077 
	C167.918365,209.656647 167.726303,209.272217 167.534225,208.887772 
	C165.787750,209.961044 164.041275,211.034317 161.967957,211.884430 
	C160.397919,207.908722 157.188019,209.433578 154.657791,208.930603 
	C152.782074,208.557739 151.036118,207.532227 149.232346,206.797440 
M187.868698,206.157349 
	C186.937729,203.707321 185.885651,201.295120 185.105438,198.797989 
	C184.050171,195.420593 181.490250,195.198730 179.255280,196.636353 
	C175.865189,198.817032 172.928741,201.702988 170.232468,203.931534 
	C170.933563,206.484207 172.080368,208.434692 171.820511,210.175171 
	C171.273483,213.839111 170.319824,217.530151 168.902466,220.948624 
	C167.763321,223.696045 168.314987,225.299316 170.586868,226.809509 
	C171.817078,227.627289 173.119537,228.477921 174.034348,229.602554 
	C177.017319,233.269669 179.472382,231.925827 181.482315,228.803329 
	C185.737579,222.192596 188.598877,215.104370 187.868698,206.157349 
z"/>
<path fill="#FD0C0C" opacity="1.000000" stroke="none" 
	d="
M149.226685,206.821716 
	C151.036118,207.532227 152.782074,208.557739 154.657791,208.930603 
	C157.188019,209.433578 160.397919,207.908722 161.925674,212.205734 
	C162.114075,213.167343 162.017914,213.584473 161.921768,214.001617 
	C161.312241,216.017502 160.702713,218.033401 159.926407,220.600876 
	C159.577988,220.668228 158.329865,220.609848 157.417053,221.134674 
	C151.525757,224.521866 145.900970,224.208191 140.371414,220.322464 
	C139.902115,219.992691 139.093124,220.146301 138.040833,220.112152 
	C137.639709,220.148987 137.257202,220.135620 137.128525,219.993973 
	C137.969055,214.813766 138.938278,209.775223 139.949615,204.353333 
	C141.109329,203.663971 142.226913,203.357971 143.686127,203.585129 
	C144.451096,207.549103 146.925613,207.014755 149.229950,206.809357 
	C149.229950,206.809357 149.221024,206.845978 149.226685,206.821716 
z"/>
<path fill="#14A1D1" opacity="1.000000" stroke="none" 
	d="
M127.830002,235.046814 
	C125.489494,235.035324 123.148994,235.023834 120.374023,234.939606 
	C124.452095,231.992126 128.913757,229.030273 133.530670,226.334305 
	C134.243698,225.917923 135.913132,226.398422 136.726608,227.012299 
	C143.210632,231.905380 150.098282,231.681824 157.460052,229.377243 
	C161.352158,228.158829 164.053528,229.892105 164.383270,234.566055 
	C162.514267,234.912720 160.759079,234.957657 158.333710,235.092804 
	C157.340500,235.321838 157.126785,235.559128 157.022385,235.894897 
	C147.985291,235.940903 138.948196,235.986908 129.322357,235.748611 
	C128.432404,235.325150 128.131195,235.185989 127.830002,235.046814 
z"/>
<path fill="#FD0C0C" opacity="1.000000" stroke="none" 
	d="
M101.028519,224.991028 
	C100.468613,226.128098 99.908707,227.265167 99.370911,228.357300 
	C97.833466,228.467606 96.270920,228.579712 94.390457,228.832214 
	C93.768890,228.812057 93.465256,228.651505 93.217896,227.922653 
	C93.245865,223.467606 92.358437,220.029312 88.472839,218.156006 
	C88.329933,217.315063 88.187027,216.474121 88.423904,215.257812 
	C88.590233,213.922684 88.376793,212.962906 88.163345,212.003143 
	C88.190186,210.836533 88.217026,209.669907 88.426834,208.203964 
	C90.014740,205.630722 91.468788,203.385147 92.804207,201.071136 
	C93.489204,199.884155 93.962288,198.574890 94.531143,197.320877 
	C94.925247,197.449387 95.319359,197.577881 95.713463,197.706390 
	C95.120239,199.735657 94.191406,201.740265 94.039909,203.801987 
	C93.918602,205.452850 94.741684,207.173080 95.524971,209.365677 
	C95.870697,211.913788 95.837090,213.958740 95.466949,216.078644 
	C93.281204,218.221680 94.285538,218.842499 96.696213,219.100494 
	C98.272293,221.230713 99.650406,223.110870 101.028519,224.991028 
z"/>
<path fill="#323232" opacity="1.000000" stroke="none" 
	d="
M235.049408,107.408539 
	C236.058731,108.871239 237.432205,110.642281 237.909073,112.628571 
	C238.509521,115.129578 239.166397,114.970238 240.820770,113.130524 
	C240.950485,121.006424 241.936279,129.219772 238.550079,136.720764 
	C237.361923,127.003212 236.188705,117.407822 235.049408,107.408539 
z"/>
<path fill="#484848" opacity="1.000000" stroke="none" 
	d="
M55.911781,133.765503 
	C59.870090,133.681671 63.459507,133.805954 67.048920,133.930237 
	C67.172379,134.467743 67.295845,135.005249 67.419304,135.542755 
	C62.491035,135.440872 60.050098,137.508987 61.262833,143.523026 
	C58.504589,142.813644 54.945671,142.619019 54.752254,141.709061 
	C54.239281,139.295624 55.180317,136.573135 55.911781,133.765503 
z"/>
<path fill="#505050" opacity="1.000000" stroke="none" 
	d="
M88.998642,147.864807 
	C87.569145,146.143021 86.231529,144.510025 85.639320,142.640869 
	C85.477737,142.130859 87.615318,140.133987 88.594353,140.206955 
	C89.910934,140.305099 92.304672,142.041473 92.175186,142.562531 
	C91.707199,144.445877 90.376305,146.114822 88.998642,147.864807 
z"/>
<path fill="#464646" opacity="1.000000" stroke="none" 
	d="
M94.734634,150.045486 
	C96.044136,148.612930 97.308510,147.396362 98.813248,146.696777 
	C99.125557,146.551559 100.943428,148.305939 100.970406,149.217331 
	C101.005791,150.413284 99.953354,151.641418 99.368767,152.855713 
	C97.837448,152.052109 96.306122,151.248505 94.734634,150.045486 
z"/>
<path fill="#FD0808" opacity="1.000000" stroke="none" 
	d="
M88.482773,218.552917 
	C92.358437,220.029312 93.245865,223.467606 93.141586,227.666656 
	C91.503578,224.969254 89.998138,221.959549 88.482773,218.552917 
z"/>
<path fill="#FD0808" opacity="1.000000" stroke="none" 
	d="
M149.054321,206.538986 
	C146.925613,207.014755 144.451096,207.549103 144.013382,203.751526 
	C145.625565,204.346054 147.252121,205.307343 149.054321,206.538986 
z"/>
<path fill="#FD0808" opacity="1.000000" stroke="none" 
	d="
M88.088501,212.373825 
	C88.376793,212.962906 88.590233,213.922684 88.488213,214.939438 
	C88.119713,214.245789 88.066681,213.495148 88.088501,212.373825 
z"/>
<path fill="#323232" opacity="1.000000" stroke="none" 
	d="
M233.055786,102.292885 
	C233.544510,102.550194 234.017776,103.096443 234.269073,103.811539 
	C233.711502,103.514198 233.375900,103.048004 233.055786,102.292885 
z"/>
<path fill="#19B5E9" opacity="1.000000" stroke="none" 
	d="
M127.927917,235.304047 
	C128.131195,235.185989 128.432404,235.325150 128.856262,235.684204 
	C128.661209,235.789825 128.343521,235.675552 127.927917,235.304047 
z"/>
<path fill="#19B5E9" opacity="1.000000" stroke="none" 
	d="
M157.294800,235.910309 
	C157.126785,235.559128 157.340500,235.321838 157.897720,235.107605 
	C157.943665,235.330017 157.755447,235.627869 157.294800,235.910309 
z"/>
<path fill="#F8F8F8" opacity="1.000000" stroke="none" 
	d="
M70.730919,116.735153 
	C72.572556,111.777298 74.140625,106.688019 76.421043,101.940948 
	C77.113136,100.500237 79.741615,99.937500 81.540535,99.095093 
	C83.419800,98.215065 86.674507,97.811287 86.977280,96.607887 
	C87.421036,94.844170 85.986214,92.438835 84.950111,90.524353 
	C84.096977,88.947960 82.537979,87.771538 81.504784,86.271202 
	C78.632751,82.100601 80.008591,78.915321 85.102669,79.147804 
	C92.168373,79.470268 99.193008,80.692932 106.506889,81.562485 
	C104.280884,79.599213 102.060425,77.640839 99.397018,75.291794 
	C101.823189,73.415344 103.856033,71.783569 105.949951,70.234344 
	C113.403244,64.719879 120.900940,59.265221 128.337479,53.728340 
	C137.389923,46.988327 146.314606,40.071724 155.502380,33.523102 
	C157.120331,32.369900 160.288177,31.701818 161.772568,32.534584 
	C163.203537,33.337383 163.713593,36.323536 164.024292,38.439167 
	C164.382828,40.880672 163.863678,43.441006 164.111694,45.910976 
	C164.571823,50.493397 166.727921,51.390209 170.323288,48.593708 
	C171.894791,47.371376 173.158234,45.727833 174.797226,44.626163 
	C175.904099,43.882164 177.779617,43.068073 178.660965,43.528969 
	C179.624786,44.032997 180.481369,46.090427 180.260666,47.258419 
	C179.598450,50.762863 178.388184,54.163742 177.365158,57.697025 
	C178.526413,58.157368 180.044189,58.759048 181.006409,59.140488 
	C179.039200,65.727600 177.124283,72.139610 174.924057,79.506996 
	C171.999741,76.331390 169.481079,72.985764 166.366272,70.342697 
	C160.149277,65.067291 153.393036,62.720833 144.589294,63.374084 
	C137.007797,63.936646 130.659912,65.595810 125.446999,70.587723 
	C119.243752,76.527962 115.131279,83.919273 113.850723,92.552765 
	C113.388565,95.668640 112.062744,97.092430 108.948090,97.710373 
	C106.763298,98.143837 104.766922,99.621475 102.737213,100.726151 
	C92.536789,106.277756 82.353088,111.860085 71.649536,117.306229 
	C71.000671,117.032272 70.865791,116.883713 70.730919,116.735153 
z"/>
<path fill="#F9FAFA" opacity="1.000000" stroke="none" 
	d="
M157.235245,128.524353 
	C140.919937,132.898254 128.441162,120.584488 125.177689,107.007523 
	C121.276566,90.777756 128.567474,76.986740 142.952026,72.780861 
	C150.857559,70.469383 157.673721,72.837738 163.801727,77.884903 
	C181.327667,92.319710 177.848297,120.590790 157.235245,128.524353 
M157.209778,97.068016 
	C150.000458,101.104477 146.498184,99.057854 145.070557,89.198189 
	C145.068604,87.908226 145.066650,86.618256 145.064682,85.328293 
	C143.941910,85.847542 142.568726,86.112495 141.739090,86.929436 
	C137.866425,90.742844 137.677353,98.644676 141.182587,103.495743 
	C144.487350,108.069328 150.498703,110.212379 155.149445,108.474968 
	C160.242889,106.572174 162.737076,101.971710 161.977753,95.575218 
	C161.859299,94.577492 161.104355,93.655327 160.101349,91.571182 
	C159.015045,94.264107 158.480576,95.589035 157.209778,97.068016 
z"/>
<path fill="#F8F9F9" opacity="1.000000" stroke="none" 
	d="
M218.044495,93.120827 
	C217.267319,94.346077 216.490143,95.571320 214.961014,96.907036 
	C212.382324,97.094147 210.555588,97.170784 208.728851,97.247421 
	C208.728851,97.247421 208.923370,97.164497 208.884567,96.868484 
	C207.634827,94.992851 206.423874,93.413246 205.125259,91.719269 
	C207.059341,90.006531 209.100861,88.591660 210.560181,86.722298 
	C211.186172,85.920395 210.602097,84.173828 210.634109,82.490860 
	C210.679626,81.138481 210.658875,80.151741 210.923706,79.003738 
	C211.356567,78.130264 211.503845,77.418037 211.651138,76.705818 
	C211.122726,76.755745 210.594330,76.805672 209.757126,76.760040 
	C209.041489,76.803062 208.634628,76.941635 207.858307,77.101486 
	C207.004745,78.116005 206.520660,79.109238 205.825409,80.361755 
	C204.741547,80.734108 203.868835,80.847176 202.939911,80.617569 
	C200.635620,77.862717 198.448425,75.509499 199.772141,71.683502 
	C199.976959,71.091553 198.569855,69.941917 197.946213,69.032997 
	C197.984238,69.015800 197.949402,69.091644 197.914581,68.742828 
	C195.128174,65.722145 193.983078,67.630829 192.963348,70.319138 
	C192.725479,70.841827 192.470917,71.007942 191.773712,71.077278 
	C190.494797,72.577377 189.710724,74.159492 188.603546,75.468269 
	C187.828613,76.384315 186.612259,76.926941 185.593048,77.636337 
	C185.249954,76.375214 184.384933,74.992889 184.645248,73.871895 
	C186.998749,63.737366 195.833588,58.788216 205.803574,61.787285 
	C207.523743,62.304729 209.320358,62.568027 211.081665,62.948723 
	C211.081665,62.948723 211.008041,62.988846 211.046158,63.306335 
	C215.985733,69.821350 220.406921,76.179558 219.016418,84.762474 
	C218.568298,87.528473 218.361618,90.333603 218.044495,93.120827 
z"/>
<path fill="#FAFBFB" opacity="1.000000" stroke="none" 
	d="
M210.567825,82.856483 
	C210.602097,84.173828 211.186172,85.920395 210.560181,86.722298 
	C209.100861,88.591660 207.059341,90.006531 205.125259,91.719269 
	C206.423874,93.413246 207.634827,94.992851 208.803711,96.936600 
	C204.240189,94.878738 199.728836,92.437668 195.194031,90.040955 
	C191.722275,88.206078 187.829285,86.868553 187.144119,82.135757 
	C187.041946,81.429993 186.313278,80.495773 185.652634,80.239830 
	C179.654861,77.916199 181.883377,73.628922 183.533371,70.056328 
	C187.936005,60.523739 197.503479,54.519672 210.963745,62.587738 
	C209.320358,62.568027 207.523743,62.304729 205.803574,61.787285 
	C195.833588,58.788216 186.998749,63.737366 184.645248,73.871895 
	C184.384933,74.992889 185.249954,76.375214 185.593048,77.636337 
	C186.612259,76.926941 187.828613,76.384315 188.603546,75.468269 
	C189.710724,74.159492 190.494797,72.577377 191.713287,71.455452 
	C188.345413,80.509727 189.529816,82.989853 199.664215,87.827354 
	C204.290833,90.035789 207.393478,88.621330 210.567825,82.856483 
z"/>
<path fill="#FAFBFB" opacity="1.000000" stroke="none" 
	d="
M218.384293,92.943306 
	C218.361618,90.333603 218.568298,87.528473 219.016418,84.762474 
	C220.406921,76.179558 215.985733,69.821350 211.066620,63.269749 
	C213.361313,65.216202 216.360153,67.143433 217.853317,69.889397 
	C221.838974,77.219162 222.880157,84.974686 218.384293,92.943306 
z"/>
<path fill="#FAFBFB" opacity="1.000000" stroke="none" 
	d="
M208.939606,97.550499 
	C210.555588,97.170784 212.382324,97.094147 214.663574,97.030388 
	C213.501328,100.056725 211.449142,99.863289 208.939606,97.550499 
z"/>
<path fill="#F8F8F8" opacity="1.000000" stroke="none" 
	d="
M71.310715,117.425613 
	C71.096222,117.457047 70.706566,117.243713 70.523911,116.882767 
	C70.865791,116.883713 71.000671,117.032272 71.310715,117.425613 
z"/>
<path fill="#3A3A3B" opacity="1.000000" stroke="none" 
	d="
M160.266663,176.869659 
	C152.979080,173.678848 148.047852,166.597885 139.294098,166.853500 
	C134.510544,166.993179 130.846130,167.793060 129.279282,172.835007 
	C125.009537,168.980652 119.873192,155.143295 120.616104,148.413055 
	C135.705292,164.622314 154.614243,170.812851 174.981064,172.178894 
	C171.227341,177.667648 167.598572,182.973663 163.964645,188.287247 
	C162.861328,184.736420 161.685043,180.950806 160.266663,176.869659 
z"/>
<path fill="#EDEFF0" opacity="1.000000" stroke="none" 
	d="
M152.996170,177.857941 
	C157.111740,178.849609 160.870834,185.935455 158.643738,189.299896 
	C157.860611,190.482971 155.214966,190.991867 153.475830,190.886154 
	C146.150772,190.440903 135.458160,180.028625 134.173767,172.205139 
	C139.797836,172.261658 145.745773,170.266953 150.524017,176.278290 
	C151.601456,177.145004 152.298813,177.501480 152.996170,177.857941 
z"/>
<path fill="#363637" opacity="1.000000" stroke="none" 
	d="
M152.935059,177.533371 
	C152.298813,177.501480 151.601456,177.145004 150.827179,176.439331 
	C151.458176,176.463028 152.166061,176.835907 152.935059,177.533371 
z"/>
<path fill="#363637" opacity="1.000000" stroke="none" 
	d="
M192.549774,167.467972 
	C192.582092,167.522461 192.517441,167.413483 192.549774,167.467972 
z"/>
<path fill="#FEF6F6" opacity="1.000000" stroke="none" 
	d="
M95.803482,216.003708 
	C95.837090,213.958740 95.870697,211.913788 95.856689,209.432648 
	C97.173019,200.683167 100.235153,193.196289 107.037216,187.087952 
	C108.114128,186.889847 108.559525,186.825928 109.004921,186.762024 
	C119.020844,191.894928 127.366035,199.087799 134.488602,207.713501 
	C136.976288,210.726181 136.402344,214.028763 133.097488,215.726013 
	C125.492210,219.631805 117.738831,223.325256 109.776192,226.409454 
	C107.592331,227.255341 104.456192,225.642685 101.392776,225.074615 
	C99.650406,223.110870 98.272293,221.230713 96.597046,218.747040 
	C96.134430,217.430267 95.968956,216.716980 95.803482,216.003708 
z"/>
<path fill="#FD0C0C" opacity="1.000000" stroke="none" 
	d="
M108.955109,186.418396 
	C108.559525,186.825928 108.114128,186.889847 107.332649,186.914078 
	C104.289185,183.597107 102.839409,186.816269 101.572311,188.242813 
	C99.880791,190.147202 98.781944,192.578018 96.869682,194.438171 
	C97.743904,189.522308 100.108253,185.280212 104.242203,182.638290 
	C107.321114,180.670639 107.882599,184.144989 108.955109,186.418396 
z"/>
<path fill="#FD0C0C" opacity="1.000000" stroke="none" 
	d="
M187.920563,206.583908 
	C188.598877,215.104370 185.737579,222.192596 181.482315,228.803329 
	C179.472382,231.925827 177.017319,233.269669 174.034348,229.602554 
	C173.119537,228.477921 171.817078,227.627289 170.586868,226.809509 
	C168.314987,225.299316 167.763321,223.696045 168.902466,220.948624 
	C170.319824,217.530151 171.273483,213.839111 171.820511,210.175171 
	C172.080368,208.434692 170.933563,206.484207 170.232468,203.931534 
	C172.928741,201.702988 175.865189,198.817032 179.255280,196.636353 
	C181.490250,195.198730 184.050171,195.420593 185.105438,198.797989 
	C185.885651,201.295120 186.937729,203.707321 187.920563,206.583908 
z"/>
<path fill="#FDCBCB" opacity="1.000000" stroke="none" 
	d="
M161.968506,214.379105 
	C162.017914,213.584473 162.114075,213.167343 162.252502,212.428894 
	C164.041275,211.034317 165.787750,209.961044 167.534225,208.887772 
	C167.726303,209.272217 167.918365,209.656647 168.110428,210.041077 
	C166.977341,212.805252 165.844254,215.569427 164.429504,219.020691 
	C163.673141,217.684799 162.844193,216.220703 161.968506,214.379105 
z"/>
<path fill="#FD0808" opacity="1.000000" stroke="none" 
	d="
M95.466949,216.078644 
	C95.968956,216.716980 96.134430,217.430267 96.399078,218.496979 
	C94.285538,218.842499 93.281204,218.221680 95.466949,216.078644 
z"/>
<path fill="#17A0CE" opacity="1.000000" stroke="none" 
	d="
M157.946106,96.913963 
	C158.480576,95.589035 159.015045,94.264107 160.101349,91.571182 
	C161.104355,93.655327 161.859299,94.577492 161.977753,95.575218 
	C162.737076,101.971710 160.242889,106.572174 155.149445,108.474968 
	C150.498703,110.212379 144.487350,108.069328 141.182587,103.495743 
	C137.677353,98.644676 137.866425,90.742844 141.739090,86.929436 
	C142.568726,86.112495 143.941910,85.847542 145.064682,85.328293 
	C145.066650,86.618256 145.068604,87.908226 144.718704,89.782379 
	C144.027206,92.755104 143.061249,95.259460 143.477158,97.508255 
	C144.366302,102.315865 148.408447,105.580292 152.134918,104.816460 
	C156.243774,103.974258 158.442825,101.337601 157.946106,96.913963 
z"/>
<path fill="#B9C9CD" opacity="1.000000" stroke="none" 
	d="
M157.577942,96.990990 
	C158.442825,101.337601 156.243774,103.974258 152.134918,104.816460 
	C148.408447,105.580292 144.366302,102.315865 143.477158,97.508255 
	C143.061249,95.259460 144.027206,92.755104 144.671539,90.142845 
	C146.498184,99.057854 150.000458,101.104477 157.577942,96.990990 
z"/>
<path fill="#1FA3CF" opacity="1.000000" stroke="none" 
	d="
M210.634109,82.490860 
	C207.393478,88.621330 204.290833,90.035789 199.664215,87.827354 
	C189.529816,82.989853 188.345413,80.509727 192.070145,71.420738 
	C192.470917,71.007942 192.725479,70.841827 193.327850,70.266212 
	C195.157440,69.689339 196.553421,69.390488 197.949402,69.091644 
	C197.949402,69.091644 197.984238,69.015800 197.993835,69.373131 
	C197.630585,70.777527 197.257767,71.824600 196.578644,73.057892 
	C195.574371,74.350777 194.582397,75.372551 194.233704,76.580078 
	C193.200821,80.157120 196.558426,84.016014 201.441711,85.077736 
	C205.566437,85.974541 207.413239,84.211159 207.330597,79.792099 
	C207.708832,78.689278 207.968307,77.884743 208.227783,77.080215 
	C208.634628,76.941635 209.041489,76.803062 209.754547,77.071434 
	C210.253220,78.040588 210.445663,78.602791 210.638123,79.164993 
	C210.658875,80.151741 210.679626,81.138481 210.634109,82.490860 
z"/>
<path fill="#B8C8CD" opacity="1.000000" stroke="none" 
	d="
M207.211853,80.090393 
	C207.413239,84.211159 205.566437,85.974541 201.441711,85.077736 
	C196.558426,84.016014 193.200821,80.157120 194.233704,76.580078 
	C194.582397,75.372551 195.574371,74.350777 196.618408,73.450470 
	C197.833466,77.034058 197.834686,81.127983 202.996124,80.960243 
	C203.868835,80.847176 204.741547,80.734108 206.118896,80.335236 
	C206.819656,80.063080 207.015762,80.076736 207.211853,80.090393 
z"/>
<path fill="#FAFBFB" opacity="1.000000" stroke="none" 
	d="
M202.939911,80.617569 
	C197.834686,81.127983 197.833466,77.034058 196.924683,73.264236 
	C197.257767,71.824600 197.630585,70.777527 197.955811,69.390327 
	C198.569855,69.941917 199.976959,71.091553 199.772141,71.683502 
	C198.448425,75.509499 200.635620,77.862717 202.939911,80.617569 
z"/>
<path fill="#FAFBFB" opacity="1.000000" stroke="none" 
	d="
M197.914581,68.742828 
	C196.553421,69.390488 195.157440,69.689339 193.396957,70.041107 
	C193.983078,67.630829 195.128174,65.722145 197.914581,68.742828 
z"/>
<path fill="#FAFBFB" opacity="1.000000" stroke="none" 
	d="
M210.923691,79.003738 
	C210.445663,78.602791 210.253220,78.040588 210.063354,77.166992 
	C210.594330,76.805672 211.122726,76.755745 211.651138,76.705818 
	C211.503845,77.418037 211.356567,78.130264 210.923691,79.003738 
z"/>
<path fill="#FAFBFB" opacity="1.000000" stroke="none" 
	d="
M207.330597,79.792099 
	C207.015762,80.076736 206.819656,80.063080 206.330063,80.075943 
	C206.520660,79.109238 207.004745,78.116005 207.858307,77.101486 
	C207.968307,77.884743 207.708832,78.689278 207.330597,79.792099 
z"/>
</svg>